<svg id="footer" width="148" height="24" viewBox="0 0 148 24" fill="none" xmlns="http://www.w3.org/2000/svg">
<circle cx="10" cy="12" r="8" stroke="white" stroke-width="2"/>
<circle cx="10" cy="12" r="9" stroke="white" stroke-width="2"/>
<path d="M10.7999 12C10.7999 16.4183 10.7999 17 10.7999 20C6.38165 20 2.79993 16.4183 2.79993 12C2.79993 7.58172 6.38165 4 10.7999 4C10.7999 8 10.7999 7.58172 10.7999 12Z" fill="white"/>
<path d="M31.9696 9.42764C31.9696 9.98477 32.7567 10.4635 34.3307 10.864C34.8842 10.9859 35.3859 11.1338 35.8356 11.3079C36.2853 11.4646 36.7351 11.6997 37.1848 12.0131C37.6518 12.309 38.0151 12.7095 38.2745 13.2144C38.534 13.7193 38.6637 14.3025 38.6637 14.9641C38.6637 16.3047 38.1621 17.3406 37.1588 18.0718C36.1556 18.7856 34.9188 19.1425 33.4486 19.1425C30.7848 19.1425 28.9685 18.1066 27.9999 16.0348L30.9058 14.3896C31.3037 15.5212 32.1512 16.0871 33.4486 16.0871C34.6421 16.0871 35.2388 15.7127 35.2388 14.9641C35.2388 14.407 34.4518 13.9282 32.8777 13.5277C32.2896 13.3711 31.788 13.2144 31.3729 13.0577C30.9577 12.901 30.508 12.6746 30.0237 12.3787C29.5393 12.0653 29.1675 11.6736 28.908 11.2035C28.6658 10.716 28.5447 10.1502 28.5447 9.50599C28.5447 8.21763 29.0118 7.20783 29.9458 6.47661C30.8972 5.72797 32.0734 5.35365 33.4745 5.35365C34.5296 5.35365 35.4896 5.59739 36.3545 6.08487C37.2194 6.55495 37.9026 7.23395 38.4043 8.12187L35.5502 9.68879C35.135 8.80087 34.4432 8.35691 33.4745 8.35691C33.0421 8.35691 32.6788 8.46137 32.3848 8.67029C32.108 8.86181 31.9696 9.11425 31.9696 9.42764Z" fill="white"/>
<path d="M48.0292 5.35365C49.4649 5.35365 50.6325 5.83243 51.532 6.78999C52.466 7.76496 52.933 9.08814 52.933 10.7595V18.7769H49.586V11.1774C49.586 10.3243 49.3525 9.66268 48.8855 9.1926C48.4357 8.72252 47.813 8.48749 47.0173 8.48749C46.1352 8.48749 45.4346 8.76605 44.9157 9.32318C44.4141 9.86289 44.1633 10.6638 44.1633 11.7258V18.7769H40.8162V0.496191H44.1633V7.18172C44.959 5.963 46.2476 5.35365 48.0292 5.35365Z" fill="white"/>
<path d="M66.844 17.1578C65.5294 18.481 63.9034 19.1425 61.9661 19.1425C60.0288 19.1425 58.4029 18.481 57.0883 17.1578C55.7737 15.8346 55.1164 14.198 55.1164 12.2481C55.1164 10.3156 55.7737 8.6877 57.0883 7.36453C58.4202 6.02394 60.0461 5.35365 61.9661 5.35365C63.8861 5.35365 65.5121 6.02394 66.844 7.36453C68.1759 8.70511 68.8418 10.333 68.8418 12.2481C68.8418 14.1806 68.1759 15.8172 66.844 17.1578ZM59.4494 14.8335C60.124 15.5125 60.9629 15.852 61.9661 15.852C62.9694 15.852 63.8083 15.5125 64.4829 14.8335C65.1575 14.1545 65.4948 13.2927 65.4948 12.2481C65.4948 11.2035 65.1575 10.3417 64.4829 9.66268C63.8083 8.98368 62.9694 8.64418 61.9661 8.64418C60.9629 8.64418 60.124 8.98368 59.4494 9.66268C58.7921 10.3591 58.4634 11.2209 58.4634 12.2481C58.4634 13.2753 58.7921 14.1371 59.4494 14.8335Z" fill="white"/>
<path d="M78.7468 5.35365C80.4938 5.35365 81.9814 6.02394 83.2095 7.36453C84.4549 8.70511 85.0776 10.333 85.0776 12.2481C85.0776 14.198 84.4549 15.8346 83.2095 17.1578C81.9987 18.481 80.5111 19.1425 78.7468 19.1425C76.9305 19.1425 75.5294 18.5071 74.5435 17.2361V24H71.1964V5.71926H74.5435V7.26007C75.5294 5.98912 76.9305 5.35365 78.7468 5.35365ZM75.5554 14.9119C76.23 15.5909 77.0862 15.9304 78.124 15.9304C79.1619 15.9304 80.0181 15.5909 80.6927 14.9119C81.3846 14.2155 81.7306 13.3275 81.7306 12.2481C81.7306 11.1687 81.3846 10.2894 80.6927 9.61045C80.0181 8.91404 79.1619 8.56583 78.124 8.56583C77.0862 8.56583 76.23 8.91404 75.5554 9.61045C74.8808 10.2894 74.5435 11.1687 74.5435 12.2481C74.5435 13.3275 74.8808 14.2155 75.5554 14.9119Z" fill="white"/>
<path d="M89.0986 4.15234C88.5451 4.15234 88.0608 3.95212 87.6457 3.55169C87.2478 3.13384 87.0489 2.64635 87.0489 2.08923C87.0489 1.5321 87.2478 1.04461 87.6457 0.626768C88.0608 0.208923 88.5451 0 89.0986 0C89.6694 0 90.1538 0.208923 90.5516 0.626768C90.9667 1.04461 91.1743 1.5321 91.1743 2.08923C91.1743 2.64635 90.9667 3.13384 90.5516 3.55169C90.1538 3.95212 89.6694 4.15234 89.0986 4.15234ZM90.7851 18.7769H87.4381V5.71926H90.7851V18.7769Z" fill="white"/>
<path d="M99.1416 19.1425C97.1351 19.1425 95.561 18.4548 94.4194 17.0794C93.2951 15.6692 92.8972 13.9717 93.2259 11.9869C93.5199 10.0718 94.3935 8.48749 95.8464 7.23395C97.334 5.98041 99.0464 5.35365 100.984 5.35365C102.298 5.35365 103.431 5.65832 104.383 6.26768C105.351 6.87704 106.043 7.70403 106.458 8.74864L103.423 10.3678C102.956 9.23613 102.048 8.67029 100.698 8.67029C99.7124 8.67029 98.8129 9.00109 98 9.66268C97.2389 10.3069 96.7632 11.1425 96.5729 12.1697C96.3999 13.2144 96.5816 14.0849 97.1178 14.7813C97.654 15.4603 98.4237 15.7998 99.427 15.7998C100.776 15.7998 101.849 15.2165 102.644 14.0501L105.343 15.7998C104.685 16.8792 103.812 17.7062 102.722 18.2807C101.632 18.8553 100.439 19.1425 99.1416 19.1425Z" fill="white"/>
<path d="M118.246 7.46899L118.558 5.71926H121.905L119.621 18.7769H116.274L116.482 17.5756C115.358 18.6202 113.922 19.1425 112.175 19.1425C110.238 19.1425 108.785 18.42 107.816 16.975C106.865 15.5473 106.57 13.8672 106.934 11.9347C107.28 10.0718 108.11 8.5136 109.425 7.26007C110.756 5.98912 112.365 5.35365 114.251 5.35365C116.084 5.35365 117.416 6.05876 118.246 7.46899ZM113.213 15.9304C114.216 15.9304 115.107 15.6083 115.885 14.9641C116.663 14.3199 117.165 13.4842 117.39 12.457L117.442 12.0392C117.58 10.9946 117.364 10.1589 116.793 9.5321C116.222 8.88792 115.435 8.56583 114.432 8.56583C113.394 8.56583 112.486 8.89663 111.708 9.55822C110.947 10.2198 110.471 11.1077 110.281 12.222C110.09 13.3188 110.272 14.2155 110.826 14.9119C111.379 15.5909 112.175 15.9304 113.213 15.9304Z" fill="white"/>
<path d="M128.312 5.71926L127.949 7.80849C128.883 6.20675 130.336 5.42329 132.308 5.45811L131.659 9.21872C130.708 9.06202 129.782 9.25354 128.883 9.79325C128.001 10.3156 127.421 11.1861 127.145 12.4048L126.029 18.7769H122.682L124.965 5.71926H128.312Z" fill="white"/>
<path d="M143.433 7.52122L144.653 0.496191H148L144.809 18.7769H141.461L141.669 17.5234C140.545 18.6028 139.092 19.1425 137.31 19.1425C135.373 19.1425 133.92 18.42 132.951 16.975C132 15.5473 131.706 13.8672 132.069 11.9347C132.415 10.0718 133.245 8.5136 134.56 7.26007C135.892 5.98912 137.5 5.35365 139.386 5.35365C141.254 5.35365 142.603 6.07617 143.433 7.52122ZM138.374 15.9304C139.429 15.9304 140.346 15.5909 141.124 14.9119C141.92 14.2329 142.404 13.3536 142.577 12.2742C142.785 11.16 142.603 10.2633 142.032 9.58433C141.479 8.90533 140.674 8.56583 139.619 8.56583C138.581 8.56583 137.665 8.89663 136.869 9.55822C136.091 10.2198 135.606 11.1077 135.416 12.222C135.226 13.3188 135.407 14.2155 135.961 14.9119C136.532 15.5909 137.336 15.9304 138.374 15.9304Z" fill="white"/>
</svg>
