<svg width="149" height="24" viewBox="0 0 149 24" fill="none" xmlns="http://www.w3.org/2000/svg">
<circle cx="10.0834" cy="12" r="7" stroke="#3E74FF" stroke-width="2"/>
<circle cx="10.0834" cy="12" r="9" stroke="#3E74FF" stroke-width="2"/>
<path d="M10.8833 12C10.8833 16.4183 10.8833 17 10.8833 20C6.46502 20 2.8833 16.4183 2.8833 12C2.8833 7.58172 6.46502 4 10.8833 4C10.8833 8 10.8833 7.58172 10.8833 12Z" fill="#3E74FF"/>
<path d="M32.053 9.42764C32.053 9.98477 32.84 10.4635 34.4141 10.864C34.9676 10.9859 35.4692 11.1338 35.919 11.3079C36.3687 11.4646 36.8184 11.6997 37.2682 12.0131C37.7352 12.309 38.0984 12.7095 38.3579 13.2144C38.6174 13.7193 38.7471 14.3025 38.7471 14.9641C38.7471 16.3047 38.2455 17.3406 37.2422 18.0718C36.239 18.7856 35.0022 19.1425 33.5319 19.1425C30.8681 19.1425 29.0519 18.1066 28.0833 16.0348L30.9892 14.3896C31.3871 15.5212 32.2346 16.0871 33.5319 16.0871C34.7254 16.0871 35.3222 15.7127 35.3222 14.9641C35.3222 14.407 34.5352 13.9282 32.9611 13.5277C32.373 13.3711 31.8714 13.2144 31.4562 13.0577C31.0411 12.901 30.5914 12.6746 30.107 12.3787C29.6227 12.0653 29.2508 11.6736 28.9914 11.2035C28.7492 10.716 28.6281 10.1502 28.6281 9.50599C28.6281 8.21763 29.0951 7.20783 30.0292 6.47661C30.9806 5.72797 32.1568 5.35365 33.5579 5.35365C34.613 5.35365 35.573 5.59739 36.4379 6.08487C37.3028 6.55495 37.986 7.23395 38.4876 8.12187L35.6336 9.68879C35.2184 8.80087 34.5265 8.35691 33.5579 8.35691C33.1254 8.35691 32.7622 8.46137 32.4681 8.67029C32.1914 8.86181 32.053 9.11425 32.053 9.42764Z" fill="#373A4A"/>
<path d="M48.1126 5.35365C49.5483 5.35365 50.7159 5.83243 51.6153 6.78999C52.5494 7.76496 53.0164 9.08814 53.0164 10.7595V18.7769H49.6694V11.1774C49.6694 10.3243 49.4359 9.66268 48.9688 9.1926C48.5191 8.72252 47.8964 8.48749 47.1007 8.48749C46.2185 8.48749 45.518 8.76605 44.9991 9.32318C44.4975 9.86289 44.2466 10.6638 44.2466 11.7258V18.7769H40.8996V0.496191H44.2466V7.18172C45.0423 5.963 46.331 5.35365 48.1126 5.35365Z" fill="#373A4A"/>
<path d="M66.9274 17.1578C65.6128 18.481 63.9868 19.1425 62.0495 19.1425C60.1122 19.1425 58.4862 18.481 57.1716 17.1578C55.857 15.8346 55.1997 14.198 55.1997 12.2481C55.1997 10.3156 55.857 8.6877 57.1716 7.36453C58.5035 6.02394 60.1295 5.35365 62.0495 5.35365C63.9695 5.35365 65.5955 6.02394 66.9274 7.36453C68.2593 8.70511 68.9252 10.333 68.9252 12.2481C68.9252 14.1806 68.2593 15.8172 66.9274 17.1578ZM59.5327 14.8335C60.2073 15.5125 61.0463 15.852 62.0495 15.852C63.0528 15.852 63.8917 15.5125 64.5663 14.8335C65.2409 14.1545 65.5782 13.2927 65.5782 12.2481C65.5782 11.2035 65.2409 10.3417 64.5663 9.66268C63.8917 8.98368 63.0528 8.64418 62.0495 8.64418C61.0463 8.64418 60.2073 8.98368 59.5327 9.66268C58.8754 10.3591 58.5468 11.2209 58.5468 12.2481C58.5468 13.2753 58.8754 14.1371 59.5327 14.8335Z" fill="#373A4A"/>
<path d="M78.8301 5.35365C80.5772 5.35365 82.0647 6.02394 83.2929 7.36453C84.5383 8.70511 85.161 10.333 85.161 12.2481C85.161 14.198 84.5383 15.8346 83.2929 17.1578C82.082 18.481 80.5945 19.1425 78.8301 19.1425C77.0139 19.1425 75.6128 18.5071 74.6269 17.2361V24H71.2798V5.71926H74.6269V7.26007C75.6128 5.98912 77.0139 5.35365 78.8301 5.35365ZM75.6388 14.9119C76.3134 15.5909 77.1696 15.9304 78.2074 15.9304C79.2453 15.9304 80.1015 15.5909 80.7761 14.9119C81.468 14.2155 81.8139 13.3275 81.8139 12.2481C81.8139 11.1687 81.468 10.2894 80.7761 9.61045C80.1015 8.91404 79.2453 8.56583 78.2074 8.56583C77.1696 8.56583 76.3134 8.91404 75.6388 9.61045C74.9642 10.2894 74.6269 11.1687 74.6269 12.2481C74.6269 13.3275 74.9642 14.2155 75.6388 14.9119Z" fill="#373A4A"/>
<path d="M89.182 4.15234C88.6285 4.15234 88.1442 3.95212 87.729 3.55169C87.3312 3.13384 87.1323 2.64635 87.1323 2.08923C87.1323 1.5321 87.3312 1.04461 87.729 0.626768C88.1442 0.208923 88.6285 0 89.182 0C89.7528 0 90.2371 0.208923 90.635 0.626768C91.0501 1.04461 91.2577 1.5321 91.2577 2.08923C91.2577 2.64635 91.0501 3.13384 90.635 3.55169C90.2371 3.95212 89.7528 4.15234 89.182 4.15234ZM90.8685 18.7769H87.5215V5.71926H90.8685V18.7769Z" fill="#373A4A"/>
<path d="M99.225 19.1425C97.2185 19.1425 95.6444 18.4548 94.5028 17.0794C93.3784 15.6692 92.9806 13.9717 93.3093 11.9869C93.6033 10.0718 94.4768 8.48749 95.9298 7.23395C97.4174 5.98041 99.1298 5.35365 101.067 5.35365C102.382 5.35365 103.515 5.65832 104.466 6.26768C105.435 6.87704 106.127 7.70403 106.542 8.74864L103.506 10.3678C103.039 9.23613 102.131 8.67029 100.782 8.67029C99.7958 8.67029 98.8963 9.00109 98.0833 9.66268C97.3223 10.3069 96.8466 11.1425 96.6563 12.1697C96.4833 13.2144 96.665 14.0849 97.2012 14.7813C97.7374 15.4603 98.5071 15.7998 99.5104 15.7998C100.86 15.7998 101.932 15.2165 102.728 14.0501L105.426 15.7998C104.769 16.8792 103.895 17.7062 102.806 18.2807C101.716 18.8553 100.522 19.1425 99.225 19.1425Z" fill="#373A4A"/>
<path d="M118.33 7.46899L118.641 5.71926H121.988L119.705 18.7769H116.358L116.565 17.5756C115.441 18.6202 114.005 19.1425 112.258 19.1425C110.321 19.1425 108.868 18.42 107.899 16.975C106.948 15.5473 106.654 13.8672 107.017 11.9347C107.363 10.0718 108.193 8.5136 109.508 7.26007C110.84 5.98912 112.448 5.35365 114.334 5.35365C116.167 5.35365 117.499 6.05876 118.33 7.46899ZM113.296 15.9304C114.299 15.9304 115.19 15.6083 115.968 14.9641C116.747 14.3199 117.248 13.4842 117.473 12.457L117.525 12.0392C117.664 10.9946 117.447 10.1589 116.877 9.5321C116.306 8.88792 115.519 8.56583 114.516 8.56583C113.478 8.56583 112.57 8.89663 111.791 9.55822C111.03 10.2198 110.554 11.1077 110.364 12.222C110.174 13.3188 110.355 14.2155 110.909 14.9119C111.463 15.5909 112.258 15.9304 113.296 15.9304Z" fill="#373A4A"/>
<path d="M128.395 5.71926L128.032 7.80849C128.966 6.20675 130.419 5.42329 132.391 5.45811L131.742 9.21872C130.791 9.06202 129.866 9.25354 128.966 9.79325C128.084 10.3156 127.505 11.1861 127.228 12.4048L126.112 18.7769H122.765L125.048 5.71926H128.395Z" fill="#373A4A"/>
<path d="M143.517 7.52122L144.736 0.496191H148.083L144.892 18.7769H141.545L141.752 17.5234C140.628 18.6028 139.175 19.1425 137.393 19.1425C135.456 19.1425 134.003 18.42 133.035 16.975C132.083 15.5473 131.789 13.8672 132.152 11.9347C132.498 10.0718 133.329 8.5136 134.643 7.26007C135.975 5.98912 137.584 5.35365 139.469 5.35365C141.337 5.35365 142.686 6.07617 143.517 7.52122ZM138.457 15.9304C139.512 15.9304 140.429 15.5909 141.208 14.9119C142.003 14.2329 142.488 13.3536 142.661 12.2742C142.868 11.16 142.686 10.2633 142.116 9.58433C141.562 8.90533 140.758 8.56583 139.703 8.56583C138.665 8.56583 137.748 8.89663 136.952 9.55822C136.174 10.2198 135.69 11.1077 135.499 12.222C135.309 13.3188 135.491 14.2155 136.044 14.9119C136.615 15.5909 137.419 15.9304 138.457 15.9304Z" fill="#373A4A"/>
</svg>
