<svg display="none" xmlns="http://www.w3.org/2000/svg">
    <symbol id="logo" viewBox="0 0 149 24" fill="none">
        <circle cx="10.0834" cy="12" r="7" stroke="#3E74FF" stroke-width="4"/>
        <circle cx="10.0834" cy="12" r="9" stroke="#3E74FF" stroke-width="2"/>
        <path d="M10.8833 12C10.8833 16.4183 10.8833 17 10.8833 20C6.46502 20 2.8833 16.4183 2.8833 12C2.8833 7.58172 6.46502 4 10.8833 4C10.8833 8 10.8833 7.58172 10.8833 12Z" fill="#3E74FF"/>
        <path d="M32.053 9.42764C32.053 9.98477 32.84 10.4635 34.4141 10.864C34.9676 10.9859 35.4692 11.1338 35.919 11.3079C36.3687 11.4646 36.8184 11.6997 37.2682 12.0131C37.7352 12.309 38.0984 12.7095 38.3579 13.2144C38.6174 13.7193 38.7471 14.3025 38.7471 14.9641C38.7471 16.3047 38.2455 17.3406 37.2422 18.0718C36.239 18.7856 35.0022 19.1425 33.5319 19.1425C30.8681 19.1425 29.0519 18.1066 28.0833 16.0348L30.9892 14.3896C31.3871 15.5212 32.2346 16.0871 33.5319 16.0871C34.7254 16.0871 35.3222 15.7127 35.3222 14.9641C35.3222 14.407 34.5352 13.9282 32.9611 13.5277C32.373 13.3711 31.8714 13.2144 31.4562 13.0577C31.0411 12.901 30.5914 12.6746 30.107 12.3787C29.6227 12.0653 29.2508 11.6736 28.9914 11.2035C28.7492 10.716 28.6281 10.1502 28.6281 9.50599C28.6281 8.21763 29.0951 7.20783 30.0292 6.47661C30.9806 5.72797 32.1568 5.35365 33.5579 5.35365C34.613 5.35365 35.573 5.59739 36.4379 6.08487C37.3028 6.55495 37.986 7.23395 38.4876 8.12187L35.6336 9.68879C35.2184 8.80087 34.5265 8.35691 33.5579 8.35691C33.1254 8.35691 32.7622 8.46137 32.4681 8.67029C32.1914 8.86181 32.053 9.11425 32.053 9.42764Z" fill="#373A4A"/>
        <path d="M48.1126 5.35365C49.5483 5.35365 50.7159 5.83243 51.6153 6.78999C52.5494 7.76496 53.0164 9.08814 53.0164 10.7595V18.7769H49.6694V11.1774C49.6694 10.3243 49.4359 9.66268 48.9688 9.1926C48.5191 8.72252 47.8964 8.48749 47.1007 8.48749C46.2185 8.48749 45.518 8.76605 44.9991 9.32318C44.4975 9.86289 44.2466 10.6638 44.2466 11.7258V18.7769H40.8996V0.496191H44.2466V7.18172C45.0423 5.963 46.331 5.35365 48.1126 5.35365Z" fill="#373A4A"/>
        <path d="M66.9274 17.1578C65.6128 18.481 63.9868 19.1425 62.0495 19.1425C60.1122 19.1425 58.4862 18.481 57.1716 17.1578C55.857 15.8346 55.1997 14.198 55.1997 12.2481C55.1997 10.3156 55.857 8.6877 57.1716 7.36453C58.5035 6.02394 60.1295 5.35365 62.0495 5.35365C63.9695 5.35365 65.5955 6.02394 66.9274 7.36453C68.2593 8.70511 68.9252 10.333 68.9252 12.2481C68.9252 14.1806 68.2593 15.8172 66.9274 17.1578ZM59.5327 14.8335C60.2073 15.5125 61.0463 15.852 62.0495 15.852C63.0528 15.852 63.8917 15.5125 64.5663 14.8335C65.2409 14.1545 65.5782 13.2927 65.5782 12.2481C65.5782 11.2035 65.2409 10.3417 64.5663 9.66268C63.8917 8.98368 63.0528 8.64418 62.0495 8.64418C61.0463 8.64418 60.2073 8.98368 59.5327 9.66268C58.8754 10.3591 58.5468 11.2209 58.5468 12.2481C58.5468 13.2753 58.8754 14.1371 59.5327 14.8335Z" fill="#373A4A"/>
        <path d="M78.8301 5.35365C80.5772 5.35365 82.0647 6.02394 83.2929 7.36453C84.5383 8.70511 85.161 10.333 85.161 12.2481C85.161 14.198 84.5383 15.8346 83.2929 17.1578C82.082 18.481 80.5945 19.1425 78.8301 19.1425C77.0139 19.1425 75.6128 18.5071 74.6269 17.2361V24H71.2798V5.71926H74.6269V7.26007C75.6128 5.98912 77.0139 5.35365 78.8301 5.35365ZM75.6388 14.9119C76.3134 15.5909 77.1696 15.9304 78.2074 15.9304C79.2453 15.9304 80.1015 15.5909 80.7761 14.9119C81.468 14.2155 81.8139 13.3275 81.8139 12.2481C81.8139 11.1687 81.468 10.2894 80.7761 9.61045C80.1015 8.91404 79.2453 8.56583 78.2074 8.56583C77.1696 8.56583 76.3134 8.91404 75.6388 9.61045C74.9642 10.2894 74.6269 11.1687 74.6269 12.2481C74.6269 13.3275 74.9642 14.2155 75.6388 14.9119Z" fill="#373A4A"/>
        <path d="M89.182 4.15234C88.6285 4.15234 88.1442 3.95212 87.729 3.55169C87.3312 3.13384 87.1323 2.64635 87.1323 2.08923C87.1323 1.5321 87.3312 1.04461 87.729 0.626768C88.1442 0.208923 88.6285 0 89.182 0C89.7528 0 90.2371 0.208923 90.635 0.626768C91.0501 1.04461 91.2577 1.5321 91.2577 2.08923C91.2577 2.64635 91.0501 3.13384 90.635 3.55169C90.2371 3.95212 89.7528 4.15234 89.182 4.15234ZM90.8685 18.7769H87.5215V5.71926H90.8685V18.7769Z" fill="#373A4A"/>
        <path d="M99.225 19.1425C97.2185 19.1425 95.6444 18.4548 94.5028 17.0794C93.3784 15.6692 92.9806 13.9717 93.3093 11.9869C93.6033 10.0718 94.4768 8.48749 95.9298 7.23395C97.4174 5.98041 99.1298 5.35365 101.067 5.35365C102.382 5.35365 103.515 5.65832 104.466 6.26768C105.435 6.87704 106.127 7.70403 106.542 8.74864L103.506 10.3678C103.039 9.23613 102.131 8.67029 100.782 8.67029C99.7958 8.67029 98.8963 9.00109 98.0833 9.66268C97.3223 10.3069 96.8466 11.1425 96.6563 12.1697C96.4833 13.2144 96.665 14.0849 97.2012 14.7813C97.7374 15.4603 98.5071 15.7998 99.5104 15.7998C100.86 15.7998 101.932 15.2165 102.728 14.0501L105.426 15.7998C104.769 16.8792 103.895 17.7062 102.806 18.2807C101.716 18.8553 100.522 19.1425 99.225 19.1425Z" fill="#373A4A"/>
        <path d="M118.33 7.46899L118.641 5.71926H121.988L119.705 18.7769H116.358L116.565 17.5756C115.441 18.6202 114.005 19.1425 112.258 19.1425C110.321 19.1425 108.868 18.42 107.899 16.975C106.948 15.5473 106.654 13.8672 107.017 11.9347C107.363 10.0718 108.193 8.5136 109.508 7.26007C110.84 5.98912 112.448 5.35365 114.334 5.35365C116.167 5.35365 117.499 6.05876 118.33 7.46899ZM113.296 15.9304C114.299 15.9304 115.19 15.6083 115.968 14.9641C116.747 14.3199 117.248 13.4842 117.473 12.457L117.525 12.0392C117.664 10.9946 117.447 10.1589 116.877 9.5321C116.306 8.88792 115.519 8.56583 114.516 8.56583C113.478 8.56583 112.57 8.89663 111.791 9.55822C111.03 10.2198 110.554 11.1077 110.364 12.222C110.174 13.3188 110.355 14.2155 110.909 14.9119C111.463 15.5909 112.258 15.9304 113.296 15.9304Z" fill="#373A4A"/>
        <path d="M128.395 5.71926L128.032 7.80849C128.966 6.20675 130.419 5.42329 132.391 5.45811L131.742 9.21872C130.791 9.06202 129.866 9.25354 128.966 9.79325C128.084 10.3156 127.505 11.1861 127.228 12.4048L126.112 18.7769H122.765L125.048 5.71926H128.395Z" fill="#373A4A"/>
        <path d="M143.517 7.52122L144.736 0.496191H148.083L144.892 18.7769H141.545L141.752 17.5234C140.628 18.6028 139.175 19.1425 137.393 19.1425C135.456 19.1425 134.003 18.42 133.035 16.975C132.083 15.5473 131.789 13.8672 132.152 11.9347C132.498 10.0718 133.329 8.5136 134.643 7.26007C135.975 5.98912 137.584 5.35365 139.469 5.35365C141.337 5.35365 142.686 6.07617 143.517 7.52122ZM138.457 15.9304C139.512 15.9304 140.429 15.5909 141.208 14.9119C142.003 14.2329 142.488 13.3536 142.661 12.2742C142.868 11.16 142.686 10.2633 142.116 9.58433C141.562 8.90533 140.758 8.56583 139.703 8.56583C138.665 8.56583 137.748 8.89663 136.952 9.55822C136.174 10.2198 135.69 11.1077 135.499 12.222C135.309 13.3188 135.491 14.2155 136.044 14.9119C136.615 15.5909 137.419 15.9304 138.457 15.9304Z" fill="#373A4A"/>
    </symbol>
    <symbol id="send-arrow" viewBox="0 0 10 10" fill="none">
		<path d="M4.71429 1L9 5M9 5L4.71429 9M9 5H1" stroke-width="2" stroke-linecap="round" stroke-linejoin="round"/>
	</symbol>
    <symbol id="arrow-right" viewBox="0 0 20 28">
		<g filter="url(#filter0_d_2123_18970)">
			<path d="M4 22.2121L5.82005 24L16 14L5.82005 4L4 5.78788L12.3599 14L4 22.2121Z"/>
		</g>
		<defs>
			<filter id="filter0_d_2123_18970" x="0" y="0" width="20" height="28" filterUnits="userSpaceOnUse" color-interpolation-filters="sRGB">
				<feFlood flood-opacity="0" result="BackgroundImageFix"/>
				<feColorMatrix in="SourceAlpha" type="matrix" values="0 0 0 0 0 0 0 0 0 0 0 0 0 0 0 0 0 0 127 0" result="hardAlpha"/>
				<feOffset/>
				<feGaussianBlur stdDeviation="2"/>
				<feComposite in2="hardAlpha" operator="out"/>
				<feColorMatrix type="matrix" values="0 0 0 0 0 0 0 0 0 0 0 0 0 0 0 0 0 0 0.18 0"/>
				<feBlend mode="normal" in2="BackgroundImageFix" result="effect1_dropShadow_2123_18970"/>
				<feBlend mode="normal" in="SourceGraphic" in2="effect1_dropShadow_2123_18970" result="shape"/>
			</filter>
		</defs>
	</symbol>
    <symbol id="arrow-left" viewBox="0 0 20 28">
		<g filter="url(#filter0_d_2123_18971)">
			<path d="M16 5.78788L14.1697 4L4 14L14.1799 24L16 22.2121L7.6401 14L16 5.78788Z"/>
		</g>
		<defs>
			<filter id="filter0_d_2123_18971" x="0" y="0" width="20" height="28" filterUnits="userSpaceOnUse" color-interpolation-filters="sRGB">
				<feFlood flood-opacity="0" result="BackgroundImageFix"/>
				<feColorMatrix in="SourceAlpha" type="matrix" values="0 0 0 0 0 0 0 0 0 0 0 0 0 0 0 0 0 0 127 0" result="hardAlpha"/>
				<feOffset/>
				<feGaussianBlur stdDeviation="2"/>
				<feComposite in2="hardAlpha" operator="out"/>
				<feColorMatrix type="matrix" values="0 0 0 0 0 0 0 0 0 0 0 0 0 0 0 0 0 0 0.18 0"/>
				<feBlend mode="normal" in2="BackgroundImageFix" result="effect1_dropShadow_2123_18971"/>
				<feBlend mode="normal" in="SourceGraphic" in2="effect1_dropShadow_2123_18971" result="shape"/>
			</filter>
		</defs>
	</symbol>

    <symbol id="like" viewBox="0 0 18 18" fill="none">
         <path fill-rule="evenodd" clip-rule="evenodd" d="M10.0319 5.64047L9.60067 8.00002H11.9993H13.6306C14.0408 8.00002 14.5862 8.22436 15.1035 8.93474C15.6195 9.6433 16 10.7206 16 12C16 13.2795 15.6195 14.3567 15.1035 15.0653C14.5862 15.7757 14.0408 16 13.6306 16H6.00001V7.91481L6.48336 6.78911L8.20189 2.78677C8.31439 2.61539 8.57049 2.39753 8.99786 2.27755C9.46791 2.1456 9.86607 2.21258 10.0681 2.32027C10.363 2.47746 10.4733 2.5964 10.5057 2.63689C10.5293 2.66637 10.5326 2.67768 10.5373 2.70122C10.5458 2.74402 10.5556 2.84279 10.5319 3.04007C10.507 3.24785 10.4583 3.47318 10.3842 3.80466L10.3812 3.81838C10.3434 3.9873 10.2978 4.19096 10.2594 4.39575L10.2593 4.39575L10.2576 4.4055L10.0319 5.64047ZM11.0089 0.555375C9.5208 -0.237904 7.22587 0.360655 6.40938 1.89231L4.64561 6.00002L4 6.00001H1C0.447715 6.00001 0 6.44773 0 7.00001V17C0 17.5523 0.447715 18 1 18L4.00001 18H6.00001H13.6306C16.0437 18 18 15.3137 18 12C18 8.87025 16.2549 6.30017 14.0279 6.02449C13.8971 6.00829 13.7645 6.00002 13.6306 6.00002H11.9993L12.225 4.76504C12.2571 4.59424 12.2962 4.41906 12.336 4.241L12.3361 4.24055C12.3539 4.1609 12.3719 4.08068 12.3894 4.00002C12.6481 2.80622 12.8091 1.51499 11.0089 0.555375ZM2 16V8.00001H4V16H2Z" fill="#3E74FF"/>
    </symbol>

    <symbol id="coins" viewBox="0 0 18 19" fill="none">
        <path fill-rule="evenodd" clip-rule="evenodd" d="M16.0374 3.41361C16.0376 3.41361 16.0364 3.41607 16.0332 3.42098C16.0356 3.41606 16.0372 3.41361 16.0374 3.41361ZM15.861 3.6C15.6367 3.40701 15.2392 3.15857 14.6212 2.91137C13.2825 2.3759 11.296 2 9 2C6.70402 2 4.7175 2.3759 3.37882 2.91137C2.76081 3.15857 2.36329 3.40701 2.13903 3.6C2.36329 3.79299 2.76081 4.04143 3.37882 4.28863C4.7175 4.8241 6.70402 5.2 9 5.2C11.296 5.2 13.2825 4.8241 14.6212 4.28863C15.2392 4.04143 15.6367 3.79299 15.861 3.6ZM1.96261 3.41361C1.96279 3.41361 1.96439 3.41606 1.96682 3.42097C1.96363 3.41607 1.96242 3.41361 1.96261 3.41361ZM1.96261 3.78639C1.96242 3.78639 1.96363 3.78393 1.96682 3.77903C1.96439 3.78394 1.96279 3.78639 1.96261 3.78639ZM16.0332 3.77902C16.0364 3.78393 16.0376 3.78639 16.0374 3.78639C16.0372 3.78639 16.0356 3.78394 16.0332 3.77902ZM9 7.2C11.8273 7.2 14.35 6.67853 16 5.86293V7C16 7.02553 15.9898 7.16958 15.7079 7.41948C15.4272 7.66834 14.964 7.93815 14.3057 8.18499C12.9966 8.67591 11.121 9 9 9C6.87903 9 5.0034 8.67591 3.69427 8.18499C3.03602 7.93815 2.57279 7.66834 2.29209 7.41948C2.01022 7.16958 2 7.02553 2 7V5.86293C3.64996 6.67853 6.17273 7.2 9 7.2ZM15.008 10.0576C15.3574 9.92662 15.6909 9.77981 16 9.61619V10.6246C16 10.7187 15.9574 10.9043 15.6773 11.1744C15.3943 11.4473 14.9322 11.7391 14.2793 12.0053C12.9785 12.5357 11.1125 12.8867 9 12.8867C6.88755 12.8867 5.02154 12.5357 3.72073 12.0053C3.06782 11.7391 2.60574 11.4473 2.32273 11.1744C2.04256 10.9043 2 10.7187 2 10.6246V9.61619C2.3091 9.77981 2.64262 9.92662 2.99202 10.0576C4.57833 10.6525 6.70269 11 9 11C11.2973 11 13.4217 10.6525 15.008 10.0576ZM0 7V8V10.6246C0 10.7532 0.0102923 10.8784 0.0297398 11H0V14.6246C0 15.4313 0.40515 16.1038 0.934625 16.6143C1.46126 17.122 2.17075 17.5332 2.96556 17.8573C4.56018 18.5075 6.69417 18.8867 9 18.8867C11.3058 18.8867 13.4398 18.5075 15.0344 17.8573C15.8292 17.5332 16.5387 17.122 17.0654 16.6143C17.5948 16.1038 18 15.4313 18 14.6246V11H17.9703C17.9897 10.8784 18 10.7532 18 10.6246V8V7V4H17.9451C17.9814 3.86867 18 3.7352 18 3.6C18 1.61177 13.9706 0 9 0C4.02944 0 0 1.61177 0 3.6C0 3.7352 0.0186333 3.86867 0.0549288 4H0V7ZM16 13.3928C15.6989 13.564 15.3745 13.7186 15.0344 13.8572C13.4398 14.5075 11.3058 14.8867 9 14.8867C6.69417 14.8867 4.56018 14.5075 2.96556 13.8572C2.62555 13.7186 2.30115 13.564 2 13.3928V14.6246C2 14.7187 2.04256 14.9043 2.32273 15.1744C2.60574 15.4473 3.06782 15.7391 3.72073 16.0053C5.02154 16.5357 6.88755 16.8867 9 16.8867C11.1125 16.8867 12.9785 16.5357 14.2793 16.0053C14.9322 15.7391 15.3943 15.4473 15.6773 15.1744C15.9574 14.9043 16 14.7187 16 14.6246V13.3928Z" fill="#3E74FF"/>
    </symbol>

    <symbol id="basket" viewBox="0 0 18 15" fill="none">
        <path fill-rule="evenodd" clip-rule="evenodd" d="M0 1C0 0.447715 0.447715 0 1 0H4C4.44361 0 4.83419 0.292251 4.95937 0.717834L7.24824 8.5H14.2192L15.2192 4.5H9C8.44772 4.5 8 4.05228 8 3.5C8 2.94772 8.44772 2.5 9 2.5H16.5C16.8079 2.5 17.0987 2.64187 17.2882 2.88459C17.4777 3.1273 17.5448 3.44379 17.4701 3.74254L15.9701 9.74254C15.8589 10.1877 15.4589 10.5 15 10.5H6.5C6.05639 10.5 5.66581 10.2077 5.54063 9.78217L3.25176 2H1C0.447715 2 0 1.55228 0 1ZM8 13C8 14.1046 7.10457 15 6 15C4.89543 15 4 14.1046 4 13C4 11.8954 4.89543 11 6 11C7.10457 11 8 11.8954 8 13ZM15 15C16.1046 15 17 14.1046 17 13C17 11.8954 16.1046 11 15 11C13.8954 11 13 11.8954 13 13C13 14.1046 13.8954 15 15 15Z" fill="#3E74FF"/>
    </symbol>

    <symbol id="camera" viewBox="0 0 20 13" fill="none">
        <path d="M1.64286 1H11.9286C12.6106 1 13.2646 1.27092 13.7468 1.75315C14.2291 2.23539 14.5 2.88944 14.5 3.57143V11.2857C14.5 11.4562 14.4323 11.6197 14.3117 11.7403C14.1912 11.8608 14.0276 11.9286 13.8571 11.9286H3.57143C2.88944 11.9286 2.23539 11.6577 1.75315 11.1754C1.27092 10.6932 1 10.0391 1 9.35714V1.64286C1 1.47236 1.06773 1.30885 1.18829 1.18829C1.30885 1.06773 1.47236 1 1.64286 1V1Z" stroke="#3E74FF" stroke-width="2" stroke-linecap="round" stroke-linejoin="round"/>
        <path d="M14.5 5.17855L19 2.60712V10.3214L14.5 7.74997" stroke="#3E74FF" stroke-width="2" stroke-linecap="round" stroke-linejoin="round"/>
    </symbol>

    <symbol id="options" viewBox="0 0 20 20" fill="none">
        <path d="M4.49153 16.6865C5.13628 16.6865 5.65895 16.1687 5.65895 15.5298C5.65895 14.891 5.13628 14.3731 4.49153 14.3731C3.84677 14.3731 3.3241 14.891 3.3241 15.5298C3.3241 16.1687 3.84677 16.6865 4.49153 16.6865Z" fill="#3E74FF"/>
        <path d="M1.05442 14.8597L3.4075 1.63724C3.44334 1.43583 3.55847 1.25677 3.72755 1.13946C3.89664 1.02216 4.10583 0.976204 4.3091 1.01172L9.67434 1.94907C9.87762 1.98459 10.0583 2.09866 10.1767 2.26619C10.2951 2.43372 10.3415 2.641 10.3057 2.84241L7.94056 16.1324C7.78132 17.0272 7.27421 17.8245 6.52819 18.3529C5.78216 18.8813 4.85673 19.0987 3.95069 18.9584C2.01055 18.6572 0.713407 16.776 1.05442 14.8597Z" stroke="#3E74FF" stroke-width="2" stroke-linecap="round" stroke-linejoin="round"/>
        <path d="M8.99396 10.2132L16.0922 7.65338C16.2862 7.58343 16.5003 7.59269 16.6874 7.67912C16.8744 7.76556 17.0192 7.92208 17.0898 8.11427L18.9531 13.1867C18.9881 13.2819 19.0038 13.3829 18.9993 13.4841C18.9948 13.5853 18.9703 13.6846 18.9271 13.7764C18.8839 13.8682 18.8229 13.9506 18.7476 14.019C18.6722 14.0874 18.584 14.1405 18.4879 14.1751L5.68933 18.7907" stroke="#3E74FF" stroke-width="2" stroke-linecap="round" stroke-linejoin="round"/>
        <path d="M18.8897 13.8461V18.2288C18.8897 18.4334 18.8077 18.6295 18.6618 18.7741C18.5158 18.9187 18.3179 19 18.1115 19H4.49146" stroke="#3E74FF" stroke-width="2" stroke-linecap="round" stroke-linejoin="round"/>
    </symbol>

    <symbol id="gamepad" viewBox="0 0 28 20" fill="none">
        <path d="M16.7852 6.86981H20.4994" stroke="#3E74FF" stroke-width="2" stroke-linecap="round" stroke-linejoin="round"/>
        <path d="M7.49951 6.86981H11.2138" stroke="#3E74FF" stroke-width="2" stroke-linecap="round" stroke-linejoin="round"/>
        <path d="M9.35669 5.07269V8.66694" stroke="#3E74FF" stroke-width="2" stroke-linecap="round" stroke-linejoin="round"/>
        <path d="M19.1087 1L8.89278 1.02923C7.47372 1.02933 6.10005 1.51313 5.01289 2.3957C3.92574 3.27828 3.19459 4.50321 2.94779 5.85549L2.94878 5.85567L1.04934 15.3089C0.929368 15.9676 1.02951 16.6461 1.33523 17.246C1.64095 17.8458 2.13632 18.3358 2.7494 18.6446C3.36247 18.9534 4.06133 19.0651 4.74447 18.9634C5.42761 18.8617 6.05946 18.5519 6.54824 18.079L6.54805 18.0788L11.5665 12.7105L19.1087 12.6813C20.7094 12.6813 22.2446 12.066 23.3765 10.9706C24.5084 9.87529 25.1444 8.3897 25.1444 6.84066C25.1444 5.29162 24.5084 3.80603 23.3765 2.71069C22.2446 1.61535 20.7094 1 19.1087 1V1Z" stroke="#3E74FF" stroke-width="2" stroke-linecap="round" stroke-linejoin="round"/>
        <path d="M25.0528 5.82635L26.9507 15.3088C27.0706 15.9675 26.9705 16.646 26.6648 17.2459C26.3591 17.8458 25.8637 18.3357 25.2506 18.6445C24.6375 18.9534 23.9387 19.0651 23.2555 18.9633C22.5724 18.8616 21.9405 18.5518 21.4517 18.0789L21.4519 18.0787L16.437 12.6916" stroke="#3E74FF" stroke-width="2" stroke-linecap="round" stroke-linejoin="round"/>
    </symbol>
    
    <symbol id="email" viewBox="0 0 16 12" fill="none">
        <path d="M0.5 1.5C0.5 0.671574 1.17157 0 2 0H14C14.8284 0 15.5 0.671573 15.5 1.5V10.5C15.5 11.3284 14.8284 12 14 12H2C1.17157 12 0.5 11.3284 0.5 10.5V1.5ZM3.13894 1.5L8 5.75342L12.8611 1.5H3.13894ZM14 2.49658L8.49388 7.31443C8.21111 7.56186 7.78889 7.56186 7.50612 7.31443L2 2.49658V10.5H14V2.49658Z" fill="#3490FE" fill-opacity="0.9"/>
    </symbol>

</svg>